<svg xmlns="http://www.w3.org/2000/svg" xmlns:xlink="http://www.w3.org/1999/xlink" width="2000" zoomAndPan="magnify" viewBox="0 0 1500 1499.999933" height="2000" preserveAspectRatio="xMidYMid meet" version="1.0"><defs><g/><linearGradient x1="0" gradientTransform="matrix(0.75, 0, 0, 0.75, 0.00003335, -0.00002)" y1="1000" x2="1999.999917" gradientUnits="userSpaceOnUse" y2="1000" id="14ffe29cea"><stop stop-opacity="1" stop-color="rgb(54.899597%, 32.159424%, 100%)" offset="0"/><stop stop-opacity="1" stop-color="rgb(54.824829%, 32.377625%, 99.960327%)" offset="0.00390625"/><stop stop-opacity="1" stop-color="rgb(54.751587%, 32.597351%, 99.92218%)" offset="0.0078125"/><stop stop-opacity="1" stop-color="rgb(54.678345%, 32.815552%, 99.884033%)" offset="0.0117187"/><stop stop-opacity="1" stop-color="rgb(54.605103%, 33.035278%, 99.845886%)" offset="0.015625"/><stop stop-opacity="1" stop-color="rgb(54.53186%, 33.253479%, 99.807739%)" offset="0.0195312"/><stop stop-opacity="1" stop-color="rgb(54.458618%, 33.473206%, 99.769592%)" offset="0.0234375"/><stop stop-opacity="1" stop-color="rgb(54.38385%, 33.691406%, 99.731445%)" offset="0.0273438"/><stop stop-opacity="1" stop-color="rgb(54.310608%, 33.911133%, 99.693298%)" offset="0.03125"/><stop stop-opacity="1" stop-color="rgb(54.237366%, 34.130859%, 99.655151%)" offset="0.0351562"/><stop stop-opacity="1" stop-color="rgb(54.164124%, 34.350586%, 99.617004%)" offset="0.0390625"/><stop stop-opacity="1" stop-color="rgb(54.090881%, 34.568787%, 99.577332%)" offset="0.0429687"/><stop stop-opacity="1" stop-color="rgb(54.017639%, 34.788513%, 99.539185%)" offset="0.046875"/><stop stop-opacity="1" stop-color="rgb(53.942871%, 35.006714%, 99.501038%)" offset="0.0507812"/><stop stop-opacity="1" stop-color="rgb(53.869629%, 35.22644%, 99.462891%)" offset="0.0546875"/><stop stop-opacity="1" stop-color="rgb(53.796387%, 35.444641%, 99.424744%)" offset="0.0585938"/><stop stop-opacity="1" stop-color="rgb(53.723145%, 35.664368%, 99.386597%)" offset="0.0625"/><stop stop-opacity="1" stop-color="rgb(53.649902%, 35.882568%, 99.34845%)" offset="0.0664062"/><stop stop-opacity="1" stop-color="rgb(53.57666%, 36.102295%, 99.310303%)" offset="0.0703125"/><stop stop-opacity="1" stop-color="rgb(53.501892%, 36.320496%, 99.272156%)" offset="0.0742187"/><stop stop-opacity="1" stop-color="rgb(53.42865%, 36.540222%, 99.234009%)" offset="0.078125"/><stop stop-opacity="1" stop-color="rgb(53.355408%, 36.758423%, 99.195862%)" offset="0.0820312"/><stop stop-opacity="1" stop-color="rgb(53.282166%, 36.978149%, 99.157715%)" offset="0.0859375"/><stop stop-opacity="1" stop-color="rgb(53.207397%, 37.19635%, 99.118042%)" offset="0.0898437"/><stop stop-opacity="1" stop-color="rgb(53.134155%, 37.416077%, 99.079895%)" offset="0.09375"/><stop stop-opacity="1" stop-color="rgb(53.060913%, 37.635803%, 99.041748%)" offset="0.0976562"/><stop stop-opacity="1" stop-color="rgb(52.987671%, 37.85553%, 99.003601%)" offset="0.101562"/><stop stop-opacity="1" stop-color="rgb(52.914429%, 38.07373%, 98.965454%)" offset="0.105469"/><stop stop-opacity="1" stop-color="rgb(52.841187%, 38.293457%, 98.927307%)" offset="0.109375"/><stop stop-opacity="1" stop-color="rgb(52.766418%, 38.511658%, 98.88916%)" offset="0.113281"/><stop stop-opacity="1" stop-color="rgb(52.693176%, 38.731384%, 98.851013%)" offset="0.117188"/><stop stop-opacity="1" stop-color="rgb(52.619934%, 38.949585%, 98.812866%)" offset="0.121094"/><stop stop-opacity="1" stop-color="rgb(52.546692%, 39.169312%, 98.774719%)" offset="0.125"/><stop stop-opacity="1" stop-color="rgb(52.47345%, 39.387512%, 98.736572%)" offset="0.128906"/><stop stop-opacity="1" stop-color="rgb(52.400208%, 39.607239%, 98.698425%)" offset="0.132812"/><stop stop-opacity="1" stop-color="rgb(52.325439%, 39.825439%, 98.658752%)" offset="0.136719"/><stop stop-opacity="1" stop-color="rgb(52.252197%, 40.045166%, 98.620605%)" offset="0.140625"/><stop stop-opacity="1" stop-color="rgb(52.178955%, 40.263367%, 98.582458%)" offset="0.144531"/><stop stop-opacity="1" stop-color="rgb(52.105713%, 40.483093%, 98.544312%)" offset="0.148437"/><stop stop-opacity="1" stop-color="rgb(52.032471%, 40.701294%, 98.506165%)" offset="0.152344"/><stop stop-opacity="1" stop-color="rgb(51.959229%, 40.921021%, 98.468018%)" offset="0.15625"/><stop stop-opacity="1" stop-color="rgb(51.88446%, 41.140747%, 98.429871%)" offset="0.160156"/><stop stop-opacity="1" stop-color="rgb(51.811218%, 41.360474%, 98.391724%)" offset="0.164062"/><stop stop-opacity="1" stop-color="rgb(51.737976%, 41.578674%, 98.353577%)" offset="0.167969"/><stop stop-opacity="1" stop-color="rgb(51.664734%, 41.798401%, 98.31543%)" offset="0.171875"/><stop stop-opacity="1" stop-color="rgb(51.591492%, 42.016602%, 98.275757%)" offset="0.175781"/><stop stop-opacity="1" stop-color="rgb(51.51825%, 42.236328%, 98.23761%)" offset="0.179687"/><stop stop-opacity="1" stop-color="rgb(51.443481%, 42.454529%, 98.199463%)" offset="0.183594"/><stop stop-opacity="1" stop-color="rgb(51.370239%, 42.674255%, 98.161316%)" offset="0.1875"/><stop stop-opacity="1" stop-color="rgb(51.296997%, 42.892456%, 98.123169%)" offset="0.191406"/><stop stop-opacity="1" stop-color="rgb(51.223755%, 43.112183%, 98.085022%)" offset="0.195312"/><stop stop-opacity="1" stop-color="rgb(51.148987%, 43.330383%, 98.046875%)" offset="0.199219"/><stop stop-opacity="1" stop-color="rgb(51.075745%, 43.55011%, 98.008728%)" offset="0.203125"/><stop stop-opacity="1" stop-color="rgb(51.002502%, 43.768311%, 97.970581%)" offset="0.207031"/><stop stop-opacity="1" stop-color="rgb(50.92926%, 43.988037%, 97.932434%)" offset="0.210938"/><stop stop-opacity="1" stop-color="rgb(50.856018%, 44.207764%, 97.894287%)" offset="0.214844"/><stop stop-opacity="1" stop-color="rgb(50.782776%, 44.42749%, 97.85614%)" offset="0.21875"/><stop stop-opacity="1" stop-color="rgb(50.708008%, 44.645691%, 97.816467%)" offset="0.222656"/><stop stop-opacity="1" stop-color="rgb(50.634766%, 44.865417%, 97.77832%)" offset="0.226562"/><stop stop-opacity="1" stop-color="rgb(50.561523%, 45.083618%, 97.740173%)" offset="0.230469"/><stop stop-opacity="1" stop-color="rgb(50.488281%, 45.303345%, 97.702026%)" offset="0.234375"/><stop stop-opacity="1" stop-color="rgb(50.415039%, 45.521545%, 97.663879%)" offset="0.238281"/><stop stop-opacity="1" stop-color="rgb(50.341797%, 45.741272%, 97.625732%)" offset="0.242188"/><stop stop-opacity="1" stop-color="rgb(50.267029%, 45.959473%, 97.587585%)" offset="0.246094"/><stop stop-opacity="1" stop-color="rgb(50.193787%, 46.179199%, 97.549438%)" offset="0.25"/><stop stop-opacity="1" stop-color="rgb(50.120544%, 46.3974%, 97.511292%)" offset="0.253906"/><stop stop-opacity="1" stop-color="rgb(50.047302%, 46.617126%, 97.473145%)" offset="0.257812"/><stop stop-opacity="1" stop-color="rgb(49.97406%, 46.835327%, 97.434998%)" offset="0.261719"/><stop stop-opacity="1" stop-color="rgb(49.900818%, 47.055054%, 97.396851%)" offset="0.265625"/><stop stop-opacity="1" stop-color="rgb(49.82605%, 47.273254%, 97.357178%)" offset="0.269531"/><stop stop-opacity="1" stop-color="rgb(49.752808%, 47.492981%, 97.319031%)" offset="0.273437"/><stop stop-opacity="1" stop-color="rgb(49.679565%, 47.712708%, 97.280884%)" offset="0.277344"/><stop stop-opacity="1" stop-color="rgb(49.606323%, 47.932434%, 97.242737%)" offset="0.28125"/><stop stop-opacity="1" stop-color="rgb(49.533081%, 48.150635%, 97.20459%)" offset="0.285156"/><stop stop-opacity="1" stop-color="rgb(49.459839%, 48.370361%, 97.166443%)" offset="0.289062"/><stop stop-opacity="1" stop-color="rgb(49.385071%, 48.588562%, 97.128296%)" offset="0.292969"/><stop stop-opacity="1" stop-color="rgb(49.311829%, 48.808289%, 97.090149%)" offset="0.296875"/><stop stop-opacity="1" stop-color="rgb(49.238586%, 49.026489%, 97.052002%)" offset="0.300781"/><stop stop-opacity="1" stop-color="rgb(49.165344%, 49.246216%, 97.013855%)" offset="0.304687"/><stop stop-opacity="1" stop-color="rgb(49.090576%, 49.464417%, 96.974182%)" offset="0.308594"/><stop stop-opacity="1" stop-color="rgb(49.017334%, 49.684143%, 96.936035%)" offset="0.3125"/><stop stop-opacity="1" stop-color="rgb(48.944092%, 49.902344%, 96.897888%)" offset="0.316406"/><stop stop-opacity="1" stop-color="rgb(48.87085%, 50.12207%, 96.859741%)" offset="0.320312"/><stop stop-opacity="1" stop-color="rgb(48.797607%, 50.340271%, 96.821594%)" offset="0.324219"/><stop stop-opacity="1" stop-color="rgb(48.724365%, 50.559998%, 96.783447%)" offset="0.328125"/><stop stop-opacity="1" stop-color="rgb(48.649597%, 50.778198%, 96.7453%)" offset="0.332031"/><stop stop-opacity="1" stop-color="rgb(48.576355%, 50.997925%, 96.707153%)" offset="0.335937"/><stop stop-opacity="1" stop-color="rgb(48.503113%, 51.217651%, 96.669006%)" offset="0.339844"/><stop stop-opacity="1" stop-color="rgb(48.429871%, 51.437378%, 96.630859%)" offset="0.34375"/><stop stop-opacity="1" stop-color="rgb(48.356628%, 51.655579%, 96.592712%)" offset="0.347656"/><stop stop-opacity="1" stop-color="rgb(48.283386%, 51.875305%, 96.554565%)" offset="0.351562"/><stop stop-opacity="1" stop-color="rgb(48.208618%, 52.093506%, 96.514893%)" offset="0.355469"/><stop stop-opacity="1" stop-color="rgb(48.135376%, 52.313232%, 96.476746%)" offset="0.359375"/><stop stop-opacity="1" stop-color="rgb(48.062134%, 52.531433%, 96.438599%)" offset="0.363281"/><stop stop-opacity="1" stop-color="rgb(47.988892%, 52.75116%, 96.400452%)" offset="0.367187"/><stop stop-opacity="1" stop-color="rgb(47.915649%, 52.96936%, 96.362305%)" offset="0.371094"/><stop stop-opacity="1" stop-color="rgb(47.842407%, 53.189087%, 96.324158%)" offset="0.375"/><stop stop-opacity="1" stop-color="rgb(47.767639%, 53.407288%, 96.286011%)" offset="0.378906"/><stop stop-opacity="1" stop-color="rgb(47.694397%, 53.627014%, 96.247864%)" offset="0.382812"/><stop stop-opacity="1" stop-color="rgb(47.621155%, 53.845215%, 96.209717%)" offset="0.386719"/><stop stop-opacity="1" stop-color="rgb(47.547913%, 54.064941%, 96.17157%)" offset="0.390625"/><stop stop-opacity="1" stop-color="rgb(47.473145%, 54.283142%, 96.133423%)" offset="0.394531"/><stop stop-opacity="1" stop-color="rgb(47.399902%, 54.502869%, 96.095276%)" offset="0.398438"/><stop stop-opacity="1" stop-color="rgb(47.32666%, 54.722595%, 96.055603%)" offset="0.402344"/><stop stop-opacity="1" stop-color="rgb(47.253418%, 54.942322%, 96.017456%)" offset="0.40625"/><stop stop-opacity="1" stop-color="rgb(47.180176%, 55.160522%, 95.979309%)" offset="0.410156"/><stop stop-opacity="1" stop-color="rgb(47.106934%, 55.380249%, 95.941162%)" offset="0.414062"/><stop stop-opacity="1" stop-color="rgb(47.032166%, 55.59845%, 95.903015%)" offset="0.417969"/><stop stop-opacity="1" stop-color="rgb(46.958923%, 55.818176%, 95.864868%)" offset="0.421875"/><stop stop-opacity="1" stop-color="rgb(46.885681%, 56.036377%, 95.826721%)" offset="0.425781"/><stop stop-opacity="1" stop-color="rgb(46.812439%, 56.256104%, 95.788574%)" offset="0.429688"/><stop stop-opacity="1" stop-color="rgb(46.739197%, 56.474304%, 95.750427%)" offset="0.433594"/><stop stop-opacity="1" stop-color="rgb(46.665955%, 56.694031%, 95.71228%)" offset="0.4375"/><stop stop-opacity="1" stop-color="rgb(46.591187%, 56.912231%, 95.672607%)" offset="0.441406"/><stop stop-opacity="1" stop-color="rgb(46.517944%, 57.131958%, 95.63446%)" offset="0.445312"/><stop stop-opacity="1" stop-color="rgb(46.444702%, 57.350159%, 95.596313%)" offset="0.449219"/><stop stop-opacity="1" stop-color="rgb(46.37146%, 57.569885%, 95.558167%)" offset="0.453125"/><stop stop-opacity="1" stop-color="rgb(46.298218%, 57.789612%, 95.52002%)" offset="0.457031"/><stop stop-opacity="1" stop-color="rgb(46.224976%, 58.009338%, 95.481873%)" offset="0.460938"/><stop stop-opacity="1" stop-color="rgb(46.150208%, 58.227539%, 95.443726%)" offset="0.464844"/><stop stop-opacity="1" stop-color="rgb(46.076965%, 58.447266%, 95.405579%)" offset="0.46875"/><stop stop-opacity="1" stop-color="rgb(46.003723%, 58.665466%, 95.367432%)" offset="0.472656"/><stop stop-opacity="1" stop-color="rgb(45.930481%, 58.885193%, 95.329285%)" offset="0.476562"/><stop stop-opacity="1" stop-color="rgb(45.857239%, 59.103394%, 95.291138%)" offset="0.480469"/><stop stop-opacity="1" stop-color="rgb(45.783997%, 59.32312%, 95.252991%)" offset="0.484375"/><stop stop-opacity="1" stop-color="rgb(45.709229%, 59.541321%, 95.213318%)" offset="0.488281"/><stop stop-opacity="1" stop-color="rgb(45.635986%, 59.761047%, 95.175171%)" offset="0.492188"/><stop stop-opacity="1" stop-color="rgb(45.562744%, 59.979248%, 95.137024%)" offset="0.496094"/><stop stop-opacity="1" stop-color="rgb(45.489502%, 60.198975%, 95.098877%)" offset="0.5"/><stop stop-opacity="1" stop-color="rgb(45.414734%, 60.417175%, 95.06073%)" offset="0.503906"/><stop stop-opacity="1" stop-color="rgb(45.341492%, 60.636902%, 95.022583%)" offset="0.507812"/><stop stop-opacity="1" stop-color="rgb(45.26825%, 60.855103%, 94.984436%)" offset="0.511719"/><stop stop-opacity="1" stop-color="rgb(45.195007%, 61.074829%, 94.946289%)" offset="0.515625"/><stop stop-opacity="1" stop-color="rgb(45.121765%, 61.294556%, 94.908142%)" offset="0.519531"/><stop stop-opacity="1" stop-color="rgb(45.048523%, 61.514282%, 94.869995%)" offset="0.523437"/><stop stop-opacity="1" stop-color="rgb(44.973755%, 61.732483%, 94.831848%)" offset="0.527344"/><stop stop-opacity="1" stop-color="rgb(44.900513%, 61.952209%, 94.793701%)" offset="0.53125"/><stop stop-opacity="1" stop-color="rgb(44.827271%, 62.17041%, 94.754028%)" offset="0.535156"/><stop stop-opacity="1" stop-color="rgb(44.754028%, 62.390137%, 94.715881%)" offset="0.539062"/><stop stop-opacity="1" stop-color="rgb(44.680786%, 62.608337%, 94.677734%)" offset="0.542969"/><stop stop-opacity="1" stop-color="rgb(44.607544%, 62.828064%, 94.639587%)" offset="0.546875"/><stop stop-opacity="1" stop-color="rgb(44.532776%, 63.046265%, 94.60144%)" offset="0.550781"/><stop stop-opacity="1" stop-color="rgb(44.459534%, 63.265991%, 94.563293%)" offset="0.554687"/><stop stop-opacity="1" stop-color="rgb(44.386292%, 63.484192%, 94.525146%)" offset="0.558594"/><stop stop-opacity="1" stop-color="rgb(44.313049%, 63.703918%, 94.487%)" offset="0.5625"/><stop stop-opacity="1" stop-color="rgb(44.239807%, 63.922119%, 94.448853%)" offset="0.566406"/><stop stop-opacity="1" stop-color="rgb(44.166565%, 64.141846%, 94.410706%)" offset="0.570312"/><stop stop-opacity="1" stop-color="rgb(44.091797%, 64.360046%, 94.371033%)" offset="0.574219"/><stop stop-opacity="1" stop-color="rgb(44.018555%, 64.579773%, 94.332886%)" offset="0.578125"/><stop stop-opacity="1" stop-color="rgb(43.945312%, 64.7995%, 94.294739%)" offset="0.582031"/><stop stop-opacity="1" stop-color="rgb(43.87207%, 65.019226%, 94.256592%)" offset="0.585937"/><stop stop-opacity="1" stop-color="rgb(43.798828%, 65.237427%, 94.218445%)" offset="0.589844"/><stop stop-opacity="1" stop-color="rgb(43.725586%, 65.457153%, 94.180298%)" offset="0.59375"/><stop stop-opacity="1" stop-color="rgb(43.650818%, 65.675354%, 94.142151%)" offset="0.597656"/><stop stop-opacity="1" stop-color="rgb(43.577576%, 65.895081%, 94.104004%)" offset="0.601562"/><stop stop-opacity="1" stop-color="rgb(43.504333%, 66.113281%, 94.065857%)" offset="0.605469"/><stop stop-opacity="1" stop-color="rgb(43.431091%, 66.333008%, 94.02771%)" offset="0.609375"/><stop stop-opacity="1" stop-color="rgb(43.356323%, 66.551208%, 93.989563%)" offset="0.613281"/><stop stop-opacity="1" stop-color="rgb(43.283081%, 66.770935%, 93.951416%)" offset="0.617187"/><stop stop-opacity="1" stop-color="rgb(43.209839%, 66.989136%, 93.911743%)" offset="0.621094"/><stop stop-opacity="1" stop-color="rgb(43.136597%, 67.208862%, 93.873596%)" offset="0.625"/><stop stop-opacity="1" stop-color="rgb(43.063354%, 67.427063%, 93.835449%)" offset="0.628906"/><stop stop-opacity="1" stop-color="rgb(42.990112%, 67.64679%, 93.797302%)" offset="0.632812"/><stop stop-opacity="1" stop-color="rgb(42.915344%, 67.866516%, 93.759155%)" offset="0.636719"/><stop stop-opacity="1" stop-color="rgb(42.842102%, 68.086243%, 93.721008%)" offset="0.640625"/><stop stop-opacity="1" stop-color="rgb(42.76886%, 68.304443%, 93.682861%)" offset="0.644531"/><stop stop-opacity="1" stop-color="rgb(42.695618%, 68.52417%, 93.644714%)" offset="0.648437"/><stop stop-opacity="1" stop-color="rgb(42.622375%, 68.742371%, 93.606567%)" offset="0.652344"/><stop stop-opacity="1" stop-color="rgb(42.549133%, 68.962097%, 93.56842%)" offset="0.65625"/><stop stop-opacity="1" stop-color="rgb(42.474365%, 69.180298%, 93.530273%)" offset="0.660156"/><stop stop-opacity="1" stop-color="rgb(42.401123%, 69.400024%, 93.492126%)" offset="0.664062"/><stop stop-opacity="1" stop-color="rgb(42.327881%, 69.618225%, 93.452454%)" offset="0.667969"/><stop stop-opacity="1" stop-color="rgb(42.254639%, 69.837952%, 93.414307%)" offset="0.671875"/><stop stop-opacity="1" stop-color="rgb(42.181396%, 70.056152%, 93.37616%)" offset="0.675781"/><stop stop-opacity="1" stop-color="rgb(42.108154%, 70.275879%, 93.338013%)" offset="0.679687"/><stop stop-opacity="1" stop-color="rgb(42.033386%, 70.49408%, 93.299866%)" offset="0.683594"/><stop stop-opacity="1" stop-color="rgb(41.960144%, 70.713806%, 93.261719%)" offset="0.6875"/><stop stop-opacity="1" stop-color="rgb(41.886902%, 70.932007%, 93.223572%)" offset="0.691406"/><stop stop-opacity="1" stop-color="rgb(41.81366%, 71.151733%, 93.185425%)" offset="0.695312"/><stop stop-opacity="1" stop-color="rgb(41.740417%, 71.37146%, 93.147278%)" offset="0.699219"/><stop stop-opacity="1" stop-color="rgb(41.667175%, 71.591187%, 93.109131%)" offset="0.703125"/><stop stop-opacity="1" stop-color="rgb(41.592407%, 71.809387%, 93.069458%)" offset="0.707031"/><stop stop-opacity="1" stop-color="rgb(41.519165%, 72.029114%, 93.031311%)" offset="0.710937"/><stop stop-opacity="1" stop-color="rgb(41.445923%, 72.247314%, 92.993164%)" offset="0.714844"/><stop stop-opacity="1" stop-color="rgb(41.372681%, 72.467041%, 92.955017%)" offset="0.71875"/><stop stop-opacity="1" stop-color="rgb(41.297913%, 72.685242%, 92.91687%)" offset="0.722656"/><stop stop-opacity="1" stop-color="rgb(41.22467%, 72.904968%, 92.878723%)" offset="0.726562"/><stop stop-opacity="1" stop-color="rgb(41.151428%, 73.123169%, 92.840576%)" offset="0.730469"/><stop stop-opacity="1" stop-color="rgb(41.078186%, 73.342896%, 92.802429%)" offset="0.734375"/><stop stop-opacity="1" stop-color="rgb(41.004944%, 73.561096%, 92.764282%)" offset="0.738281"/><stop stop-opacity="1" stop-color="rgb(40.931702%, 73.780823%, 92.726135%)" offset="0.742187"/><stop stop-opacity="1" stop-color="rgb(40.856934%, 73.999023%, 92.687988%)" offset="0.746094"/><stop stop-opacity="1" stop-color="rgb(40.783691%, 74.21875%, 92.649841%)" offset="0.75"/><stop stop-opacity="1" stop-color="rgb(40.710449%, 74.436951%, 92.610168%)" offset="0.753906"/><stop stop-opacity="1" stop-color="rgb(40.637207%, 74.656677%, 92.572021%)" offset="0.757812"/><stop stop-opacity="1" stop-color="rgb(40.563965%, 74.876404%, 92.533875%)" offset="0.761719"/><stop stop-opacity="1" stop-color="rgb(40.490723%, 75.09613%, 92.495728%)" offset="0.765625"/><stop stop-opacity="1" stop-color="rgb(40.415955%, 75.314331%, 92.457581%)" offset="0.769531"/><stop stop-opacity="1" stop-color="rgb(40.342712%, 75.534058%, 92.419434%)" offset="0.773438"/><stop stop-opacity="1" stop-color="rgb(40.26947%, 75.752258%, 92.381287%)" offset="0.777344"/><stop stop-opacity="1" stop-color="rgb(40.196228%, 75.971985%, 92.34314%)" offset="0.78125"/><stop stop-opacity="1" stop-color="rgb(40.122986%, 76.190186%, 92.304993%)" offset="0.785156"/><stop stop-opacity="1" stop-color="rgb(40.049744%, 76.409912%, 92.266846%)" offset="0.789062"/><stop stop-opacity="1" stop-color="rgb(39.974976%, 76.628113%, 92.228699%)" offset="0.792969"/><stop stop-opacity="1" stop-color="rgb(39.901733%, 76.847839%, 92.190552%)" offset="0.796875"/><stop stop-opacity="1" stop-color="rgb(39.828491%, 77.06604%, 92.150879%)" offset="0.800781"/><stop stop-opacity="1" stop-color="rgb(39.755249%, 77.285767%, 92.112732%)" offset="0.804688"/><stop stop-opacity="1" stop-color="rgb(39.680481%, 77.503967%, 92.074585%)" offset="0.808594"/><stop stop-opacity="1" stop-color="rgb(39.607239%, 77.723694%, 92.036438%)" offset="0.8125"/><stop stop-opacity="1" stop-color="rgb(39.533997%, 77.941895%, 91.998291%)" offset="0.816406"/><stop stop-opacity="1" stop-color="rgb(39.460754%, 78.161621%, 91.960144%)" offset="0.820312"/><stop stop-opacity="1" stop-color="rgb(39.387512%, 78.381348%, 91.921997%)" offset="0.824219"/><stop stop-opacity="1" stop-color="rgb(39.31427%, 78.601074%, 91.88385%)" offset="0.828125"/><stop stop-opacity="1" stop-color="rgb(39.239502%, 78.819275%, 91.845703%)" offset="0.832031"/><stop stop-opacity="1" stop-color="rgb(39.16626%, 79.039001%, 91.807556%)" offset="0.835938"/><stop stop-opacity="1" stop-color="rgb(39.093018%, 79.257202%, 91.767883%)" offset="0.839844"/><stop stop-opacity="1" stop-color="rgb(39.019775%, 79.476929%, 91.729736%)" offset="0.84375"/><stop stop-opacity="1" stop-color="rgb(38.946533%, 79.695129%, 91.691589%)" offset="0.847656"/><stop stop-opacity="1" stop-color="rgb(38.873291%, 79.914856%, 91.653442%)" offset="0.851562"/><stop stop-opacity="1" stop-color="rgb(38.798523%, 80.133057%, 91.615295%)" offset="0.855469"/><stop stop-opacity="1" stop-color="rgb(38.725281%, 80.352783%, 91.577148%)" offset="0.859375"/><stop stop-opacity="1" stop-color="rgb(38.652039%, 80.570984%, 91.539001%)" offset="0.863281"/><stop stop-opacity="1" stop-color="rgb(38.578796%, 80.79071%, 91.500854%)" offset="0.867188"/><stop stop-opacity="1" stop-color="rgb(38.505554%, 81.008911%, 91.462708%)" offset="0.871094"/><stop stop-opacity="1" stop-color="rgb(38.432312%, 81.228638%, 91.424561%)" offset="0.875"/><stop stop-opacity="1" stop-color="rgb(38.357544%, 81.448364%, 91.386414%)" offset="0.878906"/><stop stop-opacity="1" stop-color="rgb(38.284302%, 81.668091%, 91.348267%)" offset="0.882812"/><stop stop-opacity="1" stop-color="rgb(38.21106%, 81.886292%, 91.308594%)" offset="0.886719"/><stop stop-opacity="1" stop-color="rgb(38.137817%, 82.106018%, 91.270447%)" offset="0.890625"/><stop stop-opacity="1" stop-color="rgb(38.064575%, 82.324219%, 91.2323%)" offset="0.894531"/><stop stop-opacity="1" stop-color="rgb(37.991333%, 82.543945%, 91.194153%)" offset="0.898438"/><stop stop-opacity="1" stop-color="rgb(37.916565%, 82.762146%, 91.156006%)" offset="0.902344"/><stop stop-opacity="1" stop-color="rgb(37.843323%, 82.981873%, 91.117859%)" offset="0.90625"/><stop stop-opacity="1" stop-color="rgb(37.770081%, 83.200073%, 91.079712%)" offset="0.910156"/><stop stop-opacity="1" stop-color="rgb(37.696838%, 83.4198%, 91.041565%)" offset="0.914062"/><stop stop-opacity="1" stop-color="rgb(37.62207%, 83.638%, 91.003418%)" offset="0.917969"/><stop stop-opacity="1" stop-color="rgb(37.548828%, 83.857727%, 90.965271%)" offset="0.921875"/><stop stop-opacity="1" stop-color="rgb(37.475586%, 84.075928%, 90.927124%)" offset="0.925781"/><stop stop-opacity="1" stop-color="rgb(37.402344%, 84.295654%, 90.888977%)" offset="0.929688"/><stop stop-opacity="1" stop-color="rgb(37.329102%, 84.513855%, 90.849304%)" offset="0.933594"/><stop stop-opacity="1" stop-color="rgb(37.255859%, 84.733582%, 90.811157%)" offset="0.9375"/><stop stop-opacity="1" stop-color="rgb(37.181091%, 84.953308%, 90.77301%)" offset="0.941406"/><stop stop-opacity="1" stop-color="rgb(37.107849%, 85.173035%, 90.734863%)" offset="0.945312"/><stop stop-opacity="1" stop-color="rgb(37.034607%, 85.391235%, 90.696716%)" offset="0.949219"/><stop stop-opacity="1" stop-color="rgb(36.961365%, 85.610962%, 90.658569%)" offset="0.953125"/><stop stop-opacity="1" stop-color="rgb(36.888123%, 85.829163%, 90.620422%)" offset="0.957031"/><stop stop-opacity="1" stop-color="rgb(36.81488%, 86.048889%, 90.582275%)" offset="0.960938"/><stop stop-opacity="1" stop-color="rgb(36.740112%, 86.26709%, 90.544128%)" offset="0.964844"/><stop stop-opacity="1" stop-color="rgb(36.66687%, 86.486816%, 90.505981%)" offset="0.96875"/><stop stop-opacity="1" stop-color="rgb(36.593628%, 86.705017%, 90.467834%)" offset="0.972656"/><stop stop-opacity="1" stop-color="rgb(36.520386%, 86.924744%, 90.429688%)" offset="0.976562"/><stop stop-opacity="1" stop-color="rgb(36.447144%, 87.142944%, 90.390015%)" offset="0.980469"/><stop stop-opacity="1" stop-color="rgb(36.373901%, 87.362671%, 90.351868%)" offset="0.984375"/><stop stop-opacity="1" stop-color="rgb(36.299133%, 87.580872%, 90.313721%)" offset="0.988281"/><stop stop-opacity="1" stop-color="rgb(36.225891%, 87.800598%, 90.275574%)" offset="0.992188"/><stop stop-opacity="1" stop-color="rgb(36.152649%, 88.018799%, 90.237427%)" offset="0.996094"/><stop stop-opacity="1" stop-color="rgb(36.079407%, 88.238525%, 90.19928%)" offset="1"/></linearGradient><clipPath id="c46d7a83b8"><path d="M 491.621094 351 L 1008.371094 351 L 1008.371094 847 L 491.621094 847 Z M 491.621094 351 " clip-rule="nonzero"/></clipPath><clipPath id="685cc63580"><rect x="0" width="1350" y="0" height="212"/></clipPath><clipPath id="137fcdc42e"><rect x="0" width="623" y="0" height="103"/></clipPath></defs><rect x="-150" width="1800" fill="#ffffff" y="-149.999993" height="1799.99992" fill-opacity="1"/><rect x="-150" fill="url(#14ffe29cea)" width="1800" y="-149.999993" height="1799.99992"/><g clip-path="url(#c46d7a83b8)"><path fill="#ffde59" d="M 678.324219 528.261719 C 678.324219 528.261719 665.097656 506.917969 664.351562 487.664062 C 658.949219 512.613281 670.070312 537.46875 670.070312 537.46875 C 620.003906 517.082031 657.085938 463.359375 651.816406 437.859375 C 666.777344 445.871094 677.515625 459.984375 682.746094 476.132812 C 687.972656 492.28125 685.757812 513 678.324219 528.261719 Z M 1008.378906 590.316406 C 1008.378906 498.472656 956.511719 418.746094 880.472656 378.820312 C 865.648438 365.359375 851.800781 357.957031 851.800781 357.957031 C 872.292969 372.839844 900.992188 425.410156 866.332031 480.9375 C 855.4375 498.390625 836.578125 514.617188 812.617188 533.273438 C 780.558594 558.234375 742.832031 589.191406 727.332031 629.628906 C 713.117188 666.707031 717.796875 712.316406 758.261719 756.703125 C 636.027344 657.949219 722.859375 520.066406 802.980469 471.621094 C 802.980469 471.621094 731.429688 496.960938 705.71875 557.332031 C 694.476562 429.195312 866.804688 426.707031 854.988281 367.300781 C 828.488281 357.152344 799.71875 351.589844 769.652344 351.589844 C 653.507812 351.589844 556.742188 434.53125 535.339844 544.410156 C 509.976562 556.289062 491.621094 554.207031 491.621094 554.207031 C 524.71875 569.800781 630.46875 529.816406 681.421875 572.589844 C 655.65625 563.667969 615.90625 566.894531 594.035156 583.960938 C 617.914062 573.269531 663.359375 572.113281 692.179688 592.484375 C 650.367188 580.359375 583.308594 628.191406 531.261719 603.050781 C 537.878906 728.976562 642.078125 829.042969 769.652344 829.042969 C 801.507812 829.042969 831.898438 822.796875 859.683594 811.472656 C 815.242188 775.363281 741.382812 743.21875 743.296875 672.207031 C 744.578125 624.632812 783.523438 593.894531 822.507812 563.222656 C 875.097656 521.84375 923.46875 483.804688 915.347656 438.304688 C 931.121094 455.804688 934.050781 488.035156 930.644531 509.417969 C 925.980469 538.730469 927.578125 547.207031 951.941406 574.644531 C 953.742188 576.671875 953.921875 579.214844 952.5625 581.5625 C 948.832031 587.976562 933.992188 590.9375 930.457031 598.28125 C 928.210938 602.953125 933.203125 609.125 937.011719 612.539062 C 938.4375 622.019531 927.511719 625.925781 927.511719 625.925781 C 930.289062 628.074219 933.890625 632.175781 932.601562 634.648438 C 928.703125 642.144531 923.074219 640.226562 920.039062 652.746094 C 917.199219 664.460938 926.78125 681.285156 915.480469 691.59375 C 900.445312 705.3125 858.75 683.789062 830.066406 695.152344 C 816.398438 700.566406 807.253906 711.613281 814.808594 733.949219 C 827.5625 771.664062 884.035156 802.320312 889.210938 846.988281 L 889.210938 846.992188 C 889.210938 846.992188 894 823.152344 883.121094 800.402344 C 957.714844 760.027344 1008.378906 681.089844 1008.378906 590.316406 " fill-opacity="1" fill-rule="nonzero"/></g><g transform="matrix(1, 0, 0, 1, 75, 827)"><g clip-path="url(#685cc63580)"><g fill="#1800ad" fill-opacity="1"><g transform="translate(1.106189, 154.816439)"><g><path d="M 14.078125 -11.734375 L 14.078125 -87.671875 C 14.078125 -90.367188 13.222656 -92.675781 11.515625 -94.59375 C 9.804688 -96.519531 7.742188 -97.691406 5.328125 -98.109375 L 5.328125 -99.390625 L 41.8125 -104.734375 C 41.945312 -104.734375 42.050781 -104.734375 42.125 -104.734375 C 42.195312 -104.734375 42.304688 -104.734375 42.453125 -104.734375 C 44.867188 -104.734375 46.078125 -103.523438 46.078125 -101.109375 L 46.078125 -11.734375 C 46.078125 -9.171875 46.925781 -6.894531 48.625 -4.90625 C 50.332031 -2.914062 52.394531 -1.707031 54.8125 -1.28125 L 54.8125 0 L 5.328125 0 L 5.328125 -1.28125 C 7.742188 -1.707031 9.804688 -2.914062 11.515625 -4.90625 C 13.222656 -6.894531 14.078125 -9.171875 14.078125 -11.734375 Z M 46.71875 -132.671875 C 46.71875 -128.265625 45.082031 -124.425781 41.8125 -121.15625 C 38.539062 -117.882812 34.628906 -116.25 30.078125 -116.25 C 25.523438 -116.25 21.648438 -117.882812 18.453125 -121.15625 C 15.253906 -124.425781 13.65625 -128.265625 13.65625 -132.671875 C 13.65625 -137.222656 15.253906 -141.132812 18.453125 -144.40625 C 21.648438 -147.675781 25.523438 -149.3125 30.078125 -149.3125 C 34.628906 -149.3125 38.539062 -147.675781 41.8125 -144.40625 C 45.082031 -141.132812 46.71875 -137.222656 46.71875 -132.671875 Z M 46.71875 -132.671875 "/></g></g></g><g fill="#1800ad" fill-opacity="1"><g transform="translate(61.241571, 154.816439)"><g><path d="M 87.875 -28.796875 C 88.300781 -23.242188 86.664062 -18.191406 82.96875 -13.640625 C 79.269531 -9.097656 74.289062 -5.507812 68.03125 -2.875 C 61.78125 -0.25 54.957031 1.0625 47.5625 1.0625 C 40.3125 1.0625 33.664062 -0.144531 27.625 -2.5625 C 21.582031 -4.976562 16.710938 -8.28125 13.015625 -12.46875 C 9.316406 -16.664062 7.46875 -21.394531 7.46875 -26.65625 C 7.46875 -31.207031 9.101562 -35.082031 12.375 -38.28125 C 15.644531 -41.488281 19.484375 -43.09375 23.890625 -43.09375 C 28.441406 -43.09375 32.351562 -41.488281 35.625 -38.28125 C 38.894531 -35.082031 40.53125 -31.207031 40.53125 -26.65625 C 40.53125 -22.820312 39.710938 -19.875 38.078125 -17.8125 C 36.441406 -15.75 34.769531 -14.039062 33.0625 -12.6875 C 31.351562 -11.34375 30.5 -9.742188 30.5 -7.890625 C 30.5 -6.328125 31.28125 -4.832031 32.84375 -3.40625 C 34.40625 -1.988281 36.253906 -1.140625 38.390625 -0.859375 C 39.816406 -0.710938 41.164062 -0.566406 42.4375 -0.421875 C 43.71875 -0.285156 45.425781 -0.21875 47.5625 -0.21875 C 51.40625 -0.21875 54.675781 -1.566406 57.375 -4.265625 C 60.070312 -6.960938 61.421875 -10.234375 61.421875 -14.078125 C 61.421875 -17.628906 60.101562 -21.078125 57.46875 -24.421875 C 54.84375 -27.765625 51.503906 -31.101562 47.453125 -34.4375 C 43.398438 -37.78125 39.0625 -41.226562 34.4375 -44.78125 C 29.820312 -48.34375 25.488281 -52.003906 21.4375 -55.765625 C 17.382812 -59.535156 14.039062 -63.585938 11.40625 -67.921875 C 8.78125 -72.265625 7.46875 -76.925781 7.46875 -81.90625 C 7.46875 -87.59375 9.382812 -92.285156 13.21875 -95.984375 C 17.0625 -99.679688 21.753906 -102.414062 27.296875 -104.1875 C 32.847656 -105.96875 38.253906 -106.859375 43.515625 -106.859375 C 48.628906 -106.859375 52.925781 -106.359375 56.40625 -105.359375 C 59.894531 -104.367188 63.023438 -103.445312 65.796875 -102.59375 C 68.578125 -101.738281 71.457031 -101.382812 74.4375 -101.53125 C 75.570312 -101.675781 76.601562 -101.957031 77.53125 -102.375 C 78.457031 -102.800781 79.203125 -103.300781 79.765625 -103.875 L 80.84375 -103.875 L 80.84375 -69.328125 C 80.84375 -69.328125 80.734375 -69.328125 80.515625 -69.328125 C 80.304688 -69.328125 80.054688 -69.328125 79.765625 -69.328125 C 78.921875 -73.585938 77.5 -78.347656 75.5 -83.609375 C 73.507812 -88.867188 70.5625 -93.5625 66.65625 -97.6875 C 62.75 -101.8125 57.3125 -104.300781 50.34375 -105.15625 C 46.644531 -105.726562 43.441406 -105.015625 40.734375 -103.015625 C 38.035156 -101.023438 36.546875 -97.753906 36.265625 -93.203125 C 35.972656 -88.660156 37.425781 -84.46875 40.625 -80.625 C 43.832031 -76.789062 47.921875 -72.988281 52.890625 -69.21875 C 57.867188 -65.445312 62.953125 -61.570312 68.140625 -57.59375 C 73.335938 -53.613281 77.785156 -49.273438 81.484375 -44.578125 C 85.179688 -39.890625 87.3125 -34.628906 87.875 -28.796875 Z M 87.875 -28.796875 "/></g></g></g><g fill="#1800ad" fill-opacity="1"><g transform="translate(156.775811, 154.816439)"><g><path d="M 56.09375 -105.578125 C 54.25 -105.578125 52.007812 -103.726562 49.375 -100.03125 C 46.75 -96.332031 44.4375 -91.390625 42.4375 -85.203125 C 40.445312 -79.023438 39.453125 -72.164062 39.453125 -64.625 C 39.453125 -55.238281 41.015625 -46.671875 44.140625 -38.921875 C 47.273438 -31.171875 51.472656 -25.019531 56.734375 -20.46875 C 61.992188 -15.925781 67.828125 -13.65625 74.234375 -13.65625 C 78.347656 -13.65625 82.289062 -14.648438 86.0625 -16.640625 C 89.832031 -18.628906 93.210938 -21.398438 96.203125 -24.953125 L 97.265625 -24.3125 C 92.992188 -16.632812 87.234375 -10.484375 79.984375 -5.859375 C 72.734375 -1.242188 64.769531 1.0625 56.09375 1.0625 C 47.132812 1.0625 38.992188 -1.351562 31.671875 -6.1875 C 24.347656 -11.019531 18.484375 -17.523438 14.078125 -25.703125 C 9.671875 -33.878906 7.46875 -42.941406 7.46875 -52.890625 C 7.46875 -62.847656 9.671875 -71.914062 14.078125 -80.09375 C 18.484375 -88.269531 24.347656 -94.773438 31.671875 -99.609375 C 38.992188 -104.441406 47.132812 -106.859375 56.09375 -106.859375 C 63.34375 -106.859375 70.097656 -105.296875 76.359375 -102.171875 C 82.617188 -99.046875 87.664062 -95.171875 91.5 -90.546875 C 95.34375 -85.921875 97.265625 -81.332031 97.265625 -76.78125 C 97.265625 -72.238281 95.628906 -68.363281 92.359375 -65.15625 C 89.085938 -61.957031 85.175781 -60.359375 80.625 -60.359375 C 76.21875 -60.359375 72.378906 -61.957031 69.109375 -65.15625 C 65.835938 -68.363281 64.203125 -72.238281 64.203125 -76.78125 C 64.203125 -80.476562 64.984375 -83.359375 66.546875 -85.421875 C 68.109375 -87.484375 69.632812 -89.367188 71.125 -91.078125 C 72.625 -92.785156 73.375 -94.847656 73.375 -97.265625 C 73.375 -99.828125 72.304688 -101.675781 70.171875 -102.8125 C 68.035156 -103.945312 65.582031 -104.691406 62.8125 -105.046875 C 60.039062 -105.398438 57.800781 -105.578125 56.09375 -105.578125 Z M 56.09375 -105.578125 "/></g></g></g><g fill="#1800ad" fill-opacity="1"><g transform="translate(259.347173, 154.816439)"><g><path d="M 46.078125 -145.46875 L 46.078125 -11.734375 C 46.078125 -9.171875 46.925781 -6.894531 48.625 -4.90625 C 50.332031 -2.914062 52.394531 -1.707031 54.8125 -1.28125 L 54.8125 0 L 5.328125 0 L 5.328125 -1.28125 C 7.742188 -1.707031 9.804688 -2.914062 11.515625 -4.90625 C 13.222656 -6.894531 14.078125 -9.171875 14.078125 -11.734375 L 14.078125 -132.25 C 14.078125 -134.800781 13.222656 -137.070312 11.515625 -139.0625 C 9.804688 -141.0625 7.742188 -142.273438 5.328125 -142.703125 L 5.328125 -143.96875 L 41.8125 -149.3125 C 41.945312 -149.3125 42.050781 -149.3125 42.125 -149.3125 C 42.195312 -149.3125 42.304688 -149.3125 42.453125 -149.3125 C 44.867188 -149.3125 46.078125 -148.03125 46.078125 -145.46875 Z M 46.078125 -145.46875 "/></g></g></g><g fill="#1800ad" fill-opacity="1"><g transform="translate(319.482555, 154.816439)"><g><path d="M 14.078125 -11.734375 L 14.078125 -87.671875 C 14.078125 -90.367188 13.222656 -92.675781 11.515625 -94.59375 C 9.804688 -96.519531 7.742188 -97.691406 5.328125 -98.109375 L 5.328125 -99.390625 L 41.8125 -104.734375 C 41.945312 -104.734375 42.050781 -104.734375 42.125 -104.734375 C 42.195312 -104.734375 42.304688 -104.734375 42.453125 -104.734375 C 44.867188 -104.734375 46.078125 -103.523438 46.078125 -101.109375 L 46.078125 -11.734375 C 46.078125 -9.171875 46.925781 -6.894531 48.625 -4.90625 C 50.332031 -2.914062 52.394531 -1.707031 54.8125 -1.28125 L 54.8125 0 L 5.328125 0 L 5.328125 -1.28125 C 7.742188 -1.707031 9.804688 -2.914062 11.515625 -4.90625 C 13.222656 -6.894531 14.078125 -9.171875 14.078125 -11.734375 Z M 46.71875 -132.671875 C 46.71875 -128.265625 45.082031 -124.425781 41.8125 -121.15625 C 38.539062 -117.882812 34.628906 -116.25 30.078125 -116.25 C 25.523438 -116.25 21.648438 -117.882812 18.453125 -121.15625 C 15.253906 -124.425781 13.65625 -128.265625 13.65625 -132.671875 C 13.65625 -137.222656 15.253906 -141.132812 18.453125 -144.40625 C 21.648438 -147.675781 25.523438 -149.3125 30.078125 -149.3125 C 34.628906 -149.3125 38.539062 -147.675781 41.8125 -144.40625 C 45.082031 -141.132812 46.71875 -137.222656 46.71875 -132.671875 Z M 46.71875 -132.671875 "/></g></g></g><g fill="#1800ad" fill-opacity="1"><g transform="translate(379.617937, 154.816439)"><g><path d="M 102.171875 -11.734375 C 102.171875 -9.171875 103.019531 -6.894531 104.71875 -4.90625 C 106.425781 -2.914062 108.492188 -1.707031 110.921875 -1.28125 L 110.921875 0 L 61.421875 0 L 61.421875 -1.28125 C 63.847656 -1.707031 65.910156 -2.914062 67.609375 -4.90625 C 69.316406 -6.894531 70.171875 -9.171875 70.171875 -11.734375 L 70.171875 -74.65625 C 70.171875 -78.351562 71.09375 -81.265625 72.9375 -83.390625 C 74.789062 -85.523438 76.640625 -87.550781 78.484375 -89.46875 C 80.335938 -91.394531 81.265625 -93.640625 81.265625 -96.203125 C 81.265625 -98.617188 79.910156 -100.460938 77.203125 -101.734375 C 74.503906 -103.015625 71.023438 -103.65625 66.765625 -103.65625 C 62.066406 -103.65625 57.867188 -103.050781 54.171875 -101.84375 C 50.472656 -100.632812 47.773438 -99.601562 46.078125 -98.75 L 46.078125 -11.734375 C 46.078125 -9.171875 46.925781 -6.894531 48.625 -4.90625 C 50.332031 -2.914062 52.394531 -1.707031 54.8125 -1.28125 L 54.8125 0 L 5.328125 0 L 5.328125 -1.28125 C 7.742188 -1.707031 9.804688 -2.914062 11.515625 -4.90625 C 13.222656 -6.894531 14.078125 -9.171875 14.078125 -11.734375 L 14.078125 -87.671875 C 14.078125 -90.367188 13.222656 -92.675781 11.515625 -94.59375 C 9.804688 -96.519531 7.742188 -97.691406 5.328125 -98.109375 L 5.328125 -99.390625 L 41.8125 -104.734375 C 41.945312 -104.734375 42.050781 -104.734375 42.125 -104.734375 C 42.195312 -104.734375 42.304688 -104.734375 42.453125 -104.734375 C 44.867188 -104.734375 46.078125 -103.523438 46.078125 -101.109375 L 46.078125 -100.25 C 50.054688 -102.238281 54.5 -103.835938 59.40625 -105.046875 C 64.3125 -106.253906 69.25 -106.859375 74.21875 -106.859375 C 79.195312 -106.859375 83.816406 -105.898438 88.078125 -103.984375 C 92.347656 -102.066406 95.765625 -99.007812 98.328125 -94.8125 C 100.890625 -90.613281 102.171875 -84.890625 102.171875 -77.640625 Z M 102.171875 -11.734375 "/></g></g></g><g fill="#1800ad" fill-opacity="1"><g transform="translate(495.837049, 154.816439)"><g><path d="M 14.078125 -11.734375 L 14.078125 -87.671875 C 14.078125 -90.367188 13.222656 -92.675781 11.515625 -94.59375 C 9.804688 -96.519531 7.742188 -97.691406 5.328125 -98.109375 L 5.328125 -99.390625 L 41.8125 -104.734375 C 41.945312 -104.734375 42.050781 -104.734375 42.125 -104.734375 C 42.195312 -104.734375 42.304688 -104.734375 42.453125 -104.734375 C 44.867188 -104.734375 46.078125 -103.523438 46.078125 -101.109375 L 46.078125 -11.734375 C 46.078125 -9.171875 46.925781 -6.894531 48.625 -4.90625 C 50.332031 -2.914062 52.394531 -1.707031 54.8125 -1.28125 L 54.8125 0 L 5.328125 0 L 5.328125 -1.28125 C 7.742188 -1.707031 9.804688 -2.914062 11.515625 -4.90625 C 13.222656 -6.894531 14.078125 -9.171875 14.078125 -11.734375 Z M 46.71875 -132.671875 C 46.71875 -128.265625 45.082031 -124.425781 41.8125 -121.15625 C 38.539062 -117.882812 34.628906 -116.25 30.078125 -116.25 C 25.523438 -116.25 21.648438 -117.882812 18.453125 -121.15625 C 15.253906 -124.425781 13.65625 -128.265625 13.65625 -132.671875 C 13.65625 -137.222656 15.253906 -141.132812 18.453125 -144.40625 C 21.648438 -147.675781 25.523438 -149.3125 30.078125 -149.3125 C 34.628906 -149.3125 38.539062 -147.675781 41.8125 -144.40625 C 45.082031 -141.132812 46.71875 -137.222656 46.71875 -132.671875 Z M 46.71875 -132.671875 "/></g></g></g><g fill="#1800ad" fill-opacity="1"><g transform="translate(555.972431, 154.816439)"><g><path d="M 56.09375 -105.578125 C 54.25 -105.578125 52.007812 -103.726562 49.375 -100.03125 C 46.75 -96.332031 44.4375 -91.390625 42.4375 -85.203125 C 40.445312 -79.023438 39.453125 -72.164062 39.453125 -64.625 C 39.453125 -55.238281 41.015625 -46.671875 44.140625 -38.921875 C 47.273438 -31.171875 51.472656 -25.019531 56.734375 -20.46875 C 61.992188 -15.925781 67.828125 -13.65625 74.234375 -13.65625 C 78.347656 -13.65625 82.289062 -14.648438 86.0625 -16.640625 C 89.832031 -18.628906 93.210938 -21.398438 96.203125 -24.953125 L 97.265625 -24.3125 C 92.992188 -16.632812 87.234375 -10.484375 79.984375 -5.859375 C 72.734375 -1.242188 64.769531 1.0625 56.09375 1.0625 C 47.132812 1.0625 38.992188 -1.351562 31.671875 -6.1875 C 24.347656 -11.019531 18.484375 -17.523438 14.078125 -25.703125 C 9.671875 -33.878906 7.46875 -42.941406 7.46875 -52.890625 C 7.46875 -62.847656 9.671875 -71.914062 14.078125 -80.09375 C 18.484375 -88.269531 24.347656 -94.773438 31.671875 -99.609375 C 38.992188 -104.441406 47.132812 -106.859375 56.09375 -106.859375 C 63.34375 -106.859375 70.097656 -105.296875 76.359375 -102.171875 C 82.617188 -99.046875 87.664062 -95.171875 91.5 -90.546875 C 95.34375 -85.921875 97.265625 -81.332031 97.265625 -76.78125 C 97.265625 -72.238281 95.628906 -68.363281 92.359375 -65.15625 C 89.085938 -61.957031 85.175781 -60.359375 80.625 -60.359375 C 76.21875 -60.359375 72.378906 -61.957031 69.109375 -65.15625 C 65.835938 -68.363281 64.203125 -72.238281 64.203125 -76.78125 C 64.203125 -80.476562 64.984375 -83.359375 66.546875 -85.421875 C 68.109375 -87.484375 69.632812 -89.367188 71.125 -91.078125 C 72.625 -92.785156 73.375 -94.847656 73.375 -97.265625 C 73.375 -99.828125 72.304688 -101.675781 70.171875 -102.8125 C 68.035156 -103.945312 65.582031 -104.691406 62.8125 -105.046875 C 60.039062 -105.398438 57.800781 -105.578125 56.09375 -105.578125 Z M 56.09375 -105.578125 "/></g></g></g><g fill="#1800ad" fill-opacity="1"><g transform="translate(658.543793, 154.816439)"><g><path d="M 95.125 -16 C 95.125 -13.4375 95.976562 -11.160156 97.6875 -9.171875 C 99.394531 -7.179688 101.457031 -5.972656 103.875 -5.546875 L 103.875 -4.265625 L 67.1875 1.0625 C 67.1875 1.0625 67.148438 1.0625 67.078125 1.0625 C 67.003906 1.0625 66.898438 1.0625 66.765625 1.0625 C 65.765625 1.0625 64.875 0.671875 64.09375 -0.109375 C 63.3125 -0.890625 62.921875 -1.773438 62.921875 -2.765625 L 62.921875 -8.109375 C 60.359375 -6.253906 56.910156 -4.257812 52.578125 -2.125 C 48.242188 0 43.085938 1.0625 37.109375 1.0625 C 30.429688 1.0625 24.390625 -0.710938 18.984375 -4.265625 C 13.578125 -7.816406 10.09375 -12.582031 8.53125 -18.5625 C 6.820312 -24.675781 7.460938 -30.644531 10.453125 -36.46875 C 13.441406 -42.300781 17.847656 -46.992188 23.671875 -50.546875 C 27.367188 -52.828125 32.0625 -55 37.75 -57.0625 C 43.4375 -59.125 49.410156 -61.179688 55.671875 -63.234375 C 61.929688 -65.296875 67.796875 -67.429688 73.265625 -69.640625 C 78.742188 -71.847656 83.222656 -74.265625 86.703125 -76.890625 C 90.191406 -79.523438 91.9375 -82.476562 91.9375 -85.75 C 91.9375 -88.59375 90.691406 -91.4375 88.203125 -94.28125 C 85.710938 -97.125 82.757812 -99.398438 79.34375 -101.109375 C 75.21875 -103.097656 70.664062 -104.445312 65.6875 -105.15625 C 60.71875 -105.863281 55.601562 -105.789062 50.34375 -104.9375 C 42.238281 -103.800781 38.1875 -101.101562 38.1875 -96.84375 C 38.1875 -94.28125 38.96875 -92.070312 40.53125 -90.21875 C 42.09375 -88.375 43.617188 -86.421875 45.109375 -84.359375 C 46.609375 -82.296875 47.359375 -79.628906 47.359375 -76.359375 C 47.359375 -71.804688 45.722656 -67.929688 42.453125 -64.734375 C 39.179688 -61.535156 35.269531 -59.9375 30.71875 -59.9375 C 26.164062 -59.9375 22.289062 -61.535156 19.09375 -64.734375 C 15.894531 -67.929688 14.296875 -71.804688 14.296875 -76.359375 C 14.296875 -81.898438 16.210938 -86.769531 20.046875 -90.96875 C 23.890625 -95.164062 28.617188 -98.578125 34.234375 -101.203125 C 39.847656 -103.835938 45.144531 -105.507812 50.125 -106.21875 C 61.5 -107.925781 71.453125 -106.578125 79.984375 -102.171875 C 84.109375 -100.179688 87.660156 -97.375 90.640625 -93.75 C 93.628906 -90.125 95.125 -85.675781 95.125 -80.40625 Z M 62.921875 -9.59375 L 62.921875 -64.421875 C 60.078125 -63.140625 56.910156 -61.394531 53.421875 -59.1875 C 49.941406 -56.988281 46.921875 -54.003906 44.359375 -50.234375 C 41.804688 -46.460938 40.316406 -41.59375 39.890625 -35.625 C 39.597656 -30.5 40.019531 -25.976562 41.15625 -22.0625 C 42.300781 -18.15625 44.007812 -14.992188 46.28125 -12.578125 C 48.695312 -10.023438 51.503906 -8.460938 54.703125 -7.890625 C 57.910156 -7.316406 60.648438 -7.882812 62.921875 -9.59375 Z M 62.921875 -9.59375 "/></g></g></g><g fill="#1800ad" fill-opacity="1"><g transform="translate(767.725782, 154.816439)"><g><path d="M 46.078125 -145.46875 L 46.078125 -11.734375 C 46.078125 -9.171875 46.925781 -6.894531 48.625 -4.90625 C 50.332031 -2.914062 52.394531 -1.707031 54.8125 -1.28125 L 54.8125 0 L 5.328125 0 L 5.328125 -1.28125 C 7.742188 -1.707031 9.804688 -2.914062 11.515625 -4.90625 C 13.222656 -6.894531 14.078125 -9.171875 14.078125 -11.734375 L 14.078125 -132.25 C 14.078125 -134.800781 13.222656 -137.070312 11.515625 -139.0625 C 9.804688 -141.0625 7.742188 -142.273438 5.328125 -142.703125 L 5.328125 -143.96875 L 41.8125 -149.3125 C 41.945312 -149.3125 42.050781 -149.3125 42.125 -149.3125 C 42.195312 -149.3125 42.304688 -149.3125 42.453125 -149.3125 C 44.867188 -149.3125 46.078125 -148.03125 46.078125 -145.46875 Z M 46.078125 -145.46875 "/></g></g></g><g fill="#1800ad" fill-opacity="1"><g transform="translate(827.861164, 154.816439)"><g><path d="M 89.796875 -23.03125 C 95.203125 -21.75 100 -19.332031 104.1875 -15.78125 C 108.382812 -12.226562 111.726562 -7.890625 114.21875 -2.765625 C 116.707031 2.347656 117.953125 7.890625 117.953125 13.859375 C 117.953125 20.828125 116.316406 27.15625 113.046875 32.84375 C 109.773438 38.53125 105.4375 43.082031 100.03125 46.5 C 94.632812 49.914062 88.664062 51.625 82.125 51.625 C 76.71875 51.625 71.597656 50.519531 66.765625 48.3125 C 61.929688 46.101562 58.054688 43.148438 55.140625 39.453125 C 52.222656 35.765625 50.765625 31.785156 50.765625 27.515625 C 50.765625 22.960938 52.398438 19.050781 55.671875 15.78125 C 58.941406 12.507812 62.851562 10.875 67.40625 10.875 C 71.957031 10.875 75.832031 12.507812 79.03125 15.78125 C 82.226562 19.050781 83.828125 22.960938 83.828125 27.515625 C 83.828125 32.203125 82.265625 36.113281 79.140625 39.25 C 78.140625 40.238281 77.28125 41.300781 76.5625 42.4375 C 75.851562 43.582031 75.5 44.722656 75.5 45.859375 C 75.5 48.847656 77.707031 50.34375 82.125 50.34375 C 88.519531 50.34375 94.3125 48.707031 99.5 45.4375 C 104.6875 42.164062 108.84375 37.753906 111.96875 32.203125 C 115.101562 26.660156 116.671875 20.546875 116.671875 13.859375 C 116.671875 8.742188 115.5 4.125 113.15625 0 C 110.8125 -4.125 107.679688 -7.394531 103.765625 -9.8125 C 99.859375 -12.226562 95.488281 -13.4375 90.65625 -13.4375 C 85.675781 -13.4375 81.160156 -12.117188 77.109375 -9.484375 C 73.054688 -6.859375 69.25 -3.660156 65.6875 0.109375 C 62.132812 3.878906 58.582031 7.679688 55.03125 11.515625 C 51.476562 15.359375 47.640625 18.59375 43.515625 21.21875 C 39.390625 23.851562 34.695312 25.171875 29.4375 25.171875 C 24.457031 25.171875 19.867188 23.890625 15.671875 21.328125 C 11.484375 18.765625 8.179688 15.28125 5.765625 10.875 C 3.347656 6.46875 2.140625 1.632812 2.140625 -3.625 C 2.140625 -10.164062 3.984375 -15.957031 7.671875 -21 C 11.367188 -26.050781 16.0625 -29.429688 21.75 -31.140625 C 18.476562 -35.117188 15.921875 -39.5625 14.078125 -44.46875 C 12.234375 -49.375 11.3125 -54.53125 11.3125 -59.9375 C 11.3125 -68.613281 13.515625 -76.503906 17.921875 -83.609375 C 22.328125 -90.722656 28.191406 -96.375 35.515625 -100.5625 C 42.835938 -104.757812 50.976562 -106.859375 59.9375 -106.859375 C 67.1875 -106.859375 74.007812 -105.4375 80.40625 -102.59375 C 76.851562 -105.863281 73.300781 -110.128906 69.75 -115.390625 C 66.195312 -120.648438 64.421875 -126.410156 64.421875 -132.671875 C 64.421875 -137.222656 66.054688 -141.132812 69.328125 -144.40625 C 72.597656 -147.675781 76.503906 -149.3125 81.046875 -149.3125 C 85.597656 -149.3125 89.472656 -147.675781 92.671875 -144.40625 C 95.878906 -141.132812 97.484375 -137.222656 97.484375 -132.671875 C 97.484375 -129.117188 96.453125 -125.988281 94.390625 -123.28125 C 92.328125 -120.582031 89.726562 -118.519531 86.59375 -117.09375 C 81.757812 -115.101562 79.34375 -112.40625 79.34375 -109 C 79.34375 -107.144531 80.085938 -105.363281 81.578125 -103.65625 C 83.078125 -101.957031 84.894531 -100.394531 87.03125 -98.96875 C 93.707031 -94.707031 98.960938 -89.195312 102.796875 -82.4375 C 106.640625 -75.6875 108.5625 -68.1875 108.5625 -59.9375 C 108.5625 -52.539062 106.890625 -45.609375 103.546875 -39.140625 C 100.210938 -32.671875 95.628906 -27.300781 89.796875 -23.03125 Z M 59.9375 -105.578125 C 48.988281 -105.578125 43.515625 -90.363281 43.515625 -59.9375 C 43.515625 -33.207031 47.78125 -18.207031 56.3125 -14.9375 C 58.726562 -16.351562 61.109375 -17.628906 63.453125 -18.765625 C 65.796875 -19.898438 68.109375 -20.894531 70.390625 -21.75 C 74.515625 -29.144531 76.578125 -41.875 76.578125 -59.9375 C 76.578125 -90.363281 71.03125 -105.578125 59.9375 -105.578125 Z M 15.359375 -18.125 C 15.359375 -14.289062 16.742188 -10.984375 19.515625 -8.203125 C 22.285156 -5.429688 25.59375 -4.046875 29.4375 -4.046875 C 33.414062 -4.046875 37.394531 -5.039062 41.375 -7.03125 C 45.363281 -9.03125 49.488281 -11.164062 53.75 -13.4375 C 47.488281 -14.289062 41.65625 -16.207031 36.25 -19.1875 C 30.851562 -22.175781 26.234375 -25.875 22.390625 -30.28125 C 17.703125 -27.4375 15.359375 -23.382812 15.359375 -18.125 Z M 15.359375 -18.125 "/></g></g></g><g fill="#1800ad" fill-opacity="1"><g transform="translate(947.918682, 154.816439)"><g><path d="M 102.171875 -16 C 102.171875 -13.4375 103.019531 -11.160156 104.71875 -9.171875 C 106.425781 -7.179688 108.492188 -5.972656 110.921875 -5.546875 L 110.921875 -4.265625 L 74.4375 1.0625 L 73.796875 1.0625 C 72.804688 1.0625 71.953125 0.707031 71.234375 0 C 70.523438 -0.707031 70.171875 -1.5625 70.171875 -2.5625 L 70.171875 -5.765625 C 66.191406 -3.765625 61.75 -2.125 56.84375 -0.84375 C 51.9375 0.425781 46.992188 1.0625 42.015625 1.0625 C 37.035156 1.0625 32.410156 0.101562 28.140625 -1.8125 C 23.878906 -3.726562 20.46875 -6.785156 17.90625 -10.984375 C 15.351562 -15.179688 14.078125 -20.90625 14.078125 -28.15625 L 14.078125 -87.671875 C 14.078125 -90.367188 13.222656 -92.675781 11.515625 -94.59375 C 9.804688 -96.519531 7.742188 -97.691406 5.328125 -98.109375 L 5.328125 -99.390625 L 41.8125 -104.734375 L 42.453125 -104.734375 C 44.867188 -104.734375 46.078125 -103.523438 46.078125 -101.109375 L 46.078125 -31.140625 C 46.078125 -27.585938 45.148438 -24.707031 43.296875 -22.5 C 41.453125 -20.300781 39.601562 -18.273438 37.75 -16.421875 C 35.90625 -14.578125 34.984375 -12.300781 34.984375 -9.59375 C 34.984375 -7.320312 36.367188 -5.507812 39.140625 -4.15625 C 41.910156 -2.8125 45.359375 -2.140625 49.484375 -2.140625 C 54.890625 -2.140625 59.546875 -2.882812 63.453125 -4.375 C 67.367188 -5.863281 69.609375 -6.75 70.171875 -7.03125 L 70.171875 -87.671875 C 70.171875 -90.367188 69.316406 -92.675781 67.609375 -94.59375 C 65.910156 -96.519531 63.847656 -97.691406 61.421875 -98.109375 L 61.421875 -99.390625 L 97.90625 -104.734375 L 98.546875 -104.734375 C 100.960938 -104.734375 102.171875 -103.523438 102.171875 -101.109375 Z M 102.171875 -16 "/></g></g></g><g fill="#1800ad" fill-opacity="1"><g transform="translate(1064.137794, 154.816439)"><g><path d="M 14.078125 -11.734375 L 14.078125 -87.671875 C 14.078125 -90.367188 13.222656 -92.675781 11.515625 -94.59375 C 9.804688 -96.519531 7.742188 -97.691406 5.328125 -98.109375 L 5.328125 -99.390625 L 41.8125 -104.734375 C 41.945312 -104.734375 42.050781 -104.734375 42.125 -104.734375 C 42.195312 -104.734375 42.304688 -104.734375 42.453125 -104.734375 C 44.867188 -104.734375 46.078125 -103.523438 46.078125 -101.109375 L 46.078125 -11.734375 C 46.078125 -9.171875 46.925781 -6.894531 48.625 -4.90625 C 50.332031 -2.914062 52.394531 -1.707031 54.8125 -1.28125 L 54.8125 0 L 5.328125 0 L 5.328125 -1.28125 C 7.742188 -1.707031 9.804688 -2.914062 11.515625 -4.90625 C 13.222656 -6.894531 14.078125 -9.171875 14.078125 -11.734375 Z M 46.71875 -132.671875 C 46.71875 -128.265625 45.082031 -124.425781 41.8125 -121.15625 C 38.539062 -117.882812 34.628906 -116.25 30.078125 -116.25 C 25.523438 -116.25 21.648438 -117.882812 18.453125 -121.15625 C 15.253906 -124.425781 13.65625 -128.265625 13.65625 -132.671875 C 13.65625 -137.222656 15.253906 -141.132812 18.453125 -144.40625 C 21.648438 -147.675781 25.523438 -149.3125 30.078125 -149.3125 C 34.628906 -149.3125 38.539062 -147.675781 41.8125 -144.40625 C 45.082031 -141.132812 46.71875 -137.222656 46.71875 -132.671875 Z M 46.71875 -132.671875 "/></g></g></g><g fill="#1800ad" fill-opacity="1"><g transform="translate(1124.273233, 154.816439)"><g><path d="M 103.875 -16 C 103.875 -13.4375 104.726562 -11.160156 106.4375 -9.171875 C 108.144531 -7.179688 110.207031 -5.972656 112.625 -5.546875 L 112.625 -4.265625 L 76.140625 1.0625 C 76.003906 1.0625 75.898438 1.0625 75.828125 1.0625 C 75.753906 1.0625 75.644531 1.0625 75.5 1.0625 C 74.507812 1.0625 73.65625 0.671875 72.9375 -0.109375 C 72.226562 -0.890625 71.875 -1.773438 71.875 -2.765625 L 71.875 -7.890625 C 67.894531 -4.765625 63.59375 -2.382812 58.96875 -0.75 C 54.351562 0.882812 49.554688 1.421875 44.578125 0.859375 C 37.472656 0.140625 31.109375 -2.597656 25.484375 -7.359375 C 19.867188 -12.117188 15.460938 -18.234375 12.265625 -25.703125 C 9.066406 -33.171875 7.46875 -41.3125 7.46875 -50.125 C 7.46875 -58.507812 8.78125 -66.1875 11.40625 -73.15625 C 14.039062 -80.125 17.5625 -86.128906 21.96875 -91.171875 C 26.375 -96.222656 31.28125 -100.097656 36.6875 -102.796875 C 42.09375 -105.503906 47.566406 -106.859375 53.109375 -106.859375 C 56.804688 -106.859375 60.328125 -106.394531 63.671875 -105.46875 C 67.015625 -104.550781 69.75 -103.519531 71.875 -102.375 L 71.875 -132.25 C 71.875 -134.800781 71.019531 -137.070312 69.3125 -139.0625 C 67.613281 -141.0625 65.554688 -142.273438 63.140625 -142.703125 L 63.140625 -143.96875 L 99.609375 -149.3125 C 99.753906 -149.3125 99.859375 -149.3125 99.921875 -149.3125 C 99.992188 -149.3125 100.101562 -149.3125 100.25 -149.3125 C 102.664062 -149.3125 103.875 -148.03125 103.875 -145.46875 Z M 64.84375 -7.890625 C 66.976562 -7.890625 69.320312 -8.457031 71.875 -9.59375 L 71.875 -100.890625 C 69.320312 -102.023438 66.976562 -102.59375 64.84375 -102.59375 C 60.144531 -102.59375 55.875 -100.457031 52.03125 -96.1875 C 48.195312 -91.925781 45.109375 -86.238281 42.765625 -79.125 C 40.421875 -72.019531 39.25 -64.0625 39.25 -55.25 C 39.25 -46.570312 40.421875 -38.640625 42.765625 -31.453125 C 45.109375 -24.273438 48.195312 -18.550781 52.03125 -14.28125 C 55.875 -10.019531 60.144531 -7.890625 64.84375 -7.890625 Z M 64.84375 -7.890625 "/></g></g></g><g fill="#1800ad" fill-opacity="1"><g transform="translate(1242.198215, 154.816439)"><g><path d="M 74.234375 -13.65625 C 78.347656 -13.65625 82.289062 -14.648438 86.0625 -16.640625 C 89.832031 -18.628906 93.210938 -21.398438 96.203125 -24.953125 L 97.265625 -24.3125 C 92.992188 -16.632812 87.234375 -10.484375 79.984375 -5.859375 C 72.734375 -1.242188 64.769531 1.0625 56.09375 1.0625 C 47.132812 1.0625 38.992188 -1.351562 31.671875 -6.1875 C 24.347656 -11.019531 18.484375 -17.523438 14.078125 -25.703125 C 9.671875 -33.878906 7.46875 -42.941406 7.46875 -52.890625 C 7.46875 -62.847656 9.671875 -71.914062 14.078125 -80.09375 C 18.484375 -88.269531 24.347656 -94.773438 31.671875 -99.609375 C 38.992188 -104.441406 47.132812 -106.859375 56.09375 -106.859375 C 63.914062 -106.859375 70.921875 -105.007812 77.109375 -101.3125 C 83.296875 -97.613281 88.484375 -92.597656 92.671875 -86.265625 C 96.867188 -79.941406 99.75 -72.726562 101.3125 -64.625 L 39.453125 -64.625 C 39.453125 -55.238281 41.015625 -46.671875 44.140625 -38.921875 C 47.273438 -31.171875 51.472656 -25.019531 56.734375 -20.46875 C 61.992188 -15.925781 67.828125 -13.65625 74.234375 -13.65625 Z M 56.09375 -105.578125 C 53.113281 -105.578125 50.660156 -104.472656 48.734375 -102.265625 C 46.816406 -100.066406 45.21875 -97.222656 43.9375 -93.734375 C 42.65625 -90.253906 41.726562 -86.664062 41.15625 -82.96875 C 40.59375 -79.269531 40.164062 -75.859375 39.875 -72.734375 C 39.59375 -69.609375 39.453125 -67.332031 39.453125 -65.90625 L 72.3125 -65.90625 C 71.03125 -92.351562 65.625 -105.578125 56.09375 -105.578125 Z M 56.09375 -105.578125 "/></g></g></g></g></g><g transform="matrix(1, 0, 0, 1, 445, 1057)"><g clip-path="url(#137fcdc42e)"><g fill="#ffffff" fill-opacity="1"><g transform="translate(4.781375, 79.983357)"><g><path d="M 5.375 -28.515625 L 33.90625 -28.515625 L 33.90625 -23.21875 L 5.375 -22.890625 Z M 5.375 -28.515625 "/></g></g></g><g fill="#ffffff" fill-opacity="1"><g transform="translate(58.117707, 79.983357)"><g><path d="M 23.21875 1.28125 C 20.695312 1.28125 18.164062 0.929688 15.625 0.234375 C 13.082031 -0.453125 10.847656 -1.46875 8.921875 -2.8125 L 9.3125 0.640625 L 5.140625 0.640625 L 4.65625 -16.46875 L 7.796875 -16.46875 C 8.054688 -11.863281 9.632812 -8.316406 12.53125 -5.828125 C 15.425781 -3.335938 19.09375 -2.09375 23.53125 -2.09375 C 26.800781 -2.09375 29.546875 -2.988281 31.765625 -4.78125 C 33.992188 -6.570312 35.109375 -9.019531 35.109375 -12.125 C 35.109375 -14.425781 34.476562 -16.394531 33.21875 -18.03125 C 31.957031 -19.664062 30.398438 -21.03125 28.546875 -22.125 C 26.703125 -23.226562 24.203125 -24.503906 21.046875 -25.953125 C 17.453125 -27.660156 14.597656 -29.15625 12.484375 -30.4375 C 10.367188 -31.726562 8.5625 -33.429688 7.0625 -35.546875 C 5.5625 -37.660156 4.8125 -40.269531 4.8125 -43.375 C 4.8125 -45.519531 5.304688 -47.660156 6.296875 -49.796875 C 7.296875 -51.941406 9.015625 -53.765625 11.453125 -55.265625 C 13.890625 -56.765625 17.113281 -57.515625 21.125 -57.515625 C 23.53125 -57.515625 25.953125 -57.207031 28.390625 -56.59375 C 30.828125 -55.976562 33.066406 -54.921875 35.109375 -53.421875 L 34.78125 -56.875 L 38.875 -56.875 L 38.875 -39.203125 L 35.984375 -39.203125 C 35.710938 -43.429688 34.359375 -47.003906 31.921875 -49.921875 C 29.492188 -52.835938 26.082031 -54.296875 21.6875 -54.296875 C 18.476562 -54.296875 15.960938 -53.398438 14.140625 -51.609375 C 12.316406 -49.816406 11.40625 -47.582031 11.40625 -44.90625 C 11.40625 -42.757812 12.019531 -40.910156 13.25 -39.359375 C 14.488281 -37.804688 15.988281 -36.519531 17.75 -35.5 C 19.519531 -34.488281 22.007812 -33.234375 25.21875 -31.734375 C 28.863281 -30.066406 31.796875 -28.5625 34.015625 -27.21875 C 36.242188 -25.882812 38.132812 -24.132812 39.6875 -21.96875 C 41.238281 -19.800781 42.015625 -17.140625 42.015625 -13.984375 C 42.015625 -10.984375 41.273438 -8.332031 39.796875 -6.03125 C 38.328125 -3.726562 36.171875 -1.929688 33.328125 -0.640625 C 30.492188 0.640625 27.125 1.28125 23.21875 1.28125 Z M 23.21875 1.28125 "/></g></g></g><g fill="#ffffff" fill-opacity="1"><g transform="translate(117.719079, 79.983357)"><g><path d="M 4.421875 -2.65625 C 6.296875 -2.707031 7.632812 -3.132812 8.4375 -3.9375 C 9.238281 -4.738281 9.691406 -5.6875 9.796875 -6.78125 C 9.898438 -7.882812 9.953125 -9.800781 9.953125 -12.53125 L 9.953125 -47.234375 C 9.953125 -49.484375 10.035156 -51.410156 10.203125 -53.015625 L 4.421875 -52.703125 L 4.421875 -56.234375 L 22.484375 -56.234375 L 22.484375 -53.578125 C 20.617188 -53.523438 19.28125 -53.097656 18.46875 -52.296875 C 17.664062 -51.492188 17.210938 -50.539062 17.109375 -49.4375 C 17.003906 -48.34375 16.953125 -46.429688 16.953125 -43.703125 L 16.953125 -30.53125 L 22.96875 -30.53125 L 33.015625 -46.34375 C 34.992188 -49.34375 36.894531 -51.59375 38.71875 -53.09375 L 33.8125 -52.9375 L 33.8125 -56.234375 L 51.09375 -56.234375 L 51.09375 -53.578125 C 48.625 -53.359375 46.546875 -52.953125 44.859375 -52.359375 C 43.171875 -51.773438 41.523438 -50.734375 39.921875 -49.234375 C 38.316406 -47.734375 36.628906 -45.566406 34.859375 -42.734375 L 26.984375 -30.203125 C 28.160156 -29.453125 29.175781 -28.632812 30.03125 -27.75 C 30.894531 -26.863281 31.660156 -25.976562 32.328125 -25.09375 C 33.003906 -24.21875 33.445312 -23.644531 33.65625 -23.375 L 42.65625 -11.40625 C 44.632812 -8.78125 46.28125 -6.851562 47.59375 -5.625 C 48.90625 -4.394531 50.039062 -3.59375 51 -3.21875 C 51.96875 -2.84375 53.125 -2.65625 54.46875 -2.65625 L 54.46875 0 L 44.65625 0 C 43.269531 0 40.566406 -2.625 36.546875 -7.875 L 26.90625 -20.890625 C 25.625 -22.546875 24.515625 -23.910156 23.578125 -24.984375 C 22.640625 -26.054688 21.742188 -26.859375 20.890625 -27.390625 L 16.953125 -27.3125 L 16.953125 -9.5625 C 16.953125 -6.71875 16.867188 -4.601562 16.703125 -3.21875 L 22.484375 -3.53125 L 22.484375 0 L 4.421875 0 Z M 4.421875 -2.65625 "/></g></g></g><g fill="#ffffff" fill-opacity="1"><g transform="translate(186.637675, 79.983357)"><g><path d="M 4.421875 -2.65625 C 6.296875 -2.707031 7.632812 -3.132812 8.4375 -3.9375 C 9.238281 -4.738281 9.691406 -5.6875 9.796875 -6.78125 C 9.898438 -7.882812 9.953125 -9.800781 9.953125 -12.53125 L 9.953125 -47.234375 C 9.953125 -49.484375 10.035156 -51.410156 10.203125 -53.015625 L 4.421875 -52.703125 L 4.421875 -56.234375 L 22.484375 -56.234375 L 22.484375 -53.578125 C 20.617188 -53.523438 19.28125 -53.097656 18.46875 -52.296875 C 17.664062 -51.492188 17.210938 -50.539062 17.109375 -49.4375 C 17.003906 -48.34375 16.953125 -46.429688 16.953125 -43.703125 L 16.953125 -9.5625 C 16.953125 -6.71875 16.867188 -4.601562 16.703125 -3.21875 L 22.484375 -3.53125 L 22.484375 0 L 4.421875 0 Z M 4.421875 -2.65625 "/></g></g></g><g fill="#ffffff" fill-opacity="1"><g transform="translate(227.604596, 79.983357)"><g><path d="M 13.5 -45.546875 L 13.421875 -45.546875 L 13.65625 -11.171875 C 13.65625 -7.578125 13.601562 -4.925781 13.5 -3.21875 L 19.28125 -3.53125 L 19.28125 0 L 4.578125 0 L 4.578125 -2.65625 C 6.722656 -2.65625 8.140625 -3.269531 8.828125 -4.5 C 9.523438 -5.726562 9.875 -7.226562 9.875 -9 L 9.953125 -53.015625 L 4.578125 -52.703125 L 4.578125 -56.234375 L 14.140625 -56.234375 L 48.359375 -10.4375 L 48.4375 -10.4375 L 48.515625 -47.234375 C 48.515625 -49.484375 48.597656 -51.410156 48.765625 -53.015625 L 42.96875 -52.703125 L 42.96875 -56.234375 L 57.75 -56.234375 L 57.75 -53.578125 C 56.144531 -53.523438 54.953125 -53.21875 54.171875 -52.65625 C 53.398438 -52.09375 52.90625 -51.328125 52.6875 -50.359375 C 52.476562 -49.398438 52.375 -48.117188 52.375 -46.515625 L 52.375 -43.703125 L 52.21875 1.28125 L 48.359375 1.28125 Z M 13.5 -45.546875 "/></g></g></g><g fill="#ffffff" fill-opacity="1"><g transform="translate(302.868511, 79.983357)"><g><path d="M 31 1.28125 C 25.757812 1.28125 21.0625 0.0234375 16.90625 -2.484375 C 12.757812 -5.003906 9.519531 -8.429688 7.1875 -12.765625 C 4.851562 -17.109375 3.6875 -21.929688 3.6875 -27.234375 C 3.6875 -32.484375 4.742188 -37.410156 6.859375 -42.015625 C 8.984375 -46.617188 12.144531 -50.351562 16.34375 -53.21875 C 20.550781 -56.082031 25.625 -57.515625 31.5625 -57.515625 C 37.457031 -57.515625 42.867188 -55.878906 47.796875 -52.609375 L 47.390625 -56.953125 L 51.734375 -56.953125 L 51.734375 -38.3125 L 48.84375 -38.3125 C 48.300781 -43.289062 46.546875 -47.1875 43.578125 -50 C 40.609375 -52.8125 36.789062 -54.21875 32.125 -54.21875 C 28.320312 -54.21875 24.851562 -53.160156 21.71875 -51.046875 C 18.59375 -48.929688 16.117188 -45.914062 14.296875 -42 C 12.472656 -38.09375 11.5625 -33.570312 11.5625 -28.4375 C 11.5625 -23.507812 12.523438 -19.101562 14.453125 -15.21875 C 16.378906 -11.332031 18.976562 -8.304688 22.25 -6.140625 C 25.519531 -3.972656 29.132812 -2.890625 33.09375 -2.890625 C 36.6875 -2.890625 40.140625 -3.691406 43.453125 -5.296875 C 46.773438 -6.910156 49.507812 -9.1875 51.65625 -12.125 L 53.734375 -10.4375 C 50.628906 -6.101562 47.066406 -3.066406 43.046875 -1.328125 C 39.035156 0.410156 35.019531 1.28125 31 1.28125 Z M 31 1.28125 "/></g></g></g><g fill="#ffffff" fill-opacity="1"><g transform="translate(373.072228, 79.983357)"><g><path d="M -0.484375 -2.65625 C 0.859375 -2.65625 1.929688 -2.960938 2.734375 -3.578125 C 3.535156 -4.191406 4.191406 -4.992188 4.703125 -5.984375 C 5.210938 -6.972656 5.8125 -8.457031 6.5 -10.4375 L 7.3125 -12.6875 L 23.859375 -57.75 L 25.78125 -57.75 L 43.703125 -12.046875 C 44.285156 -10.597656 44.789062 -9.03125 45.21875 -7.34375 C 45.65625 -5.65625 45.84375 -4.28125 45.78125 -3.21875 L 51.25 -3.53125 L 51.25 0 L 32.859375 0 L 32.859375 -2.65625 C 36.015625 -2.707031 37.59375 -3.988281 37.59375 -6.5 C 37.59375 -7.519531 37.328125 -8.78125 36.796875 -10.28125 L 33.984375 -17.828125 L 13.09375 -17.34375 C 12.289062 -15.15625 11.351562 -12.289062 10.28125 -8.75 C 9.75 -6.988281 9.082031 -5.144531 8.28125 -3.21875 L 14.546875 -3.53125 L 14.546875 0 L -0.484375 0 Z M 32.859375 -20.8125 L 27.15625 -36.140625 L 23.53125 -46.03125 L 23.375 -46.03125 L 20 -36.953125 L 15.65625 -24.734375 L 14.296875 -20.8125 Z M 32.859375 -20.8125 "/></g></g></g><g fill="#ffffff" fill-opacity="1"><g transform="translate(437.412518, 79.983357)"><g><path d="M 4.421875 -2.65625 C 6.296875 -2.707031 7.632812 -3.132812 8.4375 -3.9375 C 9.238281 -4.738281 9.691406 -5.6875 9.796875 -6.78125 C 9.898438 -7.882812 9.953125 -9.800781 9.953125 -12.53125 L 9.953125 -47.234375 C 9.953125 -49.484375 10.035156 -51.410156 10.203125 -53.015625 L 4.421875 -52.703125 L 4.421875 -56.234375 C 9.984375 -56.335938 14.1875 -56.390625 17.03125 -56.390625 C 19.601562 -56.390625 21.53125 -56.363281 22.8125 -56.3125 C 30.363281 -56.207031 35.890625 -54.9375 39.390625 -52.5 C 42.898438 -50.0625 44.65625 -46.539062 44.65625 -41.9375 C 44.71875 -38.238281 43.625 -34.914062 41.375 -31.96875 C 39.125 -29.019531 35.210938 -26.984375 29.640625 -25.859375 C 30.546875 -25.171875 31.375 -24.34375 32.125 -23.375 C 32.875 -22.40625 33.894531 -20.90625 35.1875 -18.875 L 40.640625 -10.28125 C 41.816406 -8.40625 42.796875 -6.972656 43.578125 -5.984375 C 44.359375 -4.992188 45.296875 -4.191406 46.390625 -3.578125 C 47.484375 -2.960938 48.835938 -2.65625 50.453125 -2.65625 L 50.453125 0 L 40.328125 0 C 38.878906 -1.226562 37.660156 -2.5 36.671875 -3.8125 C 35.679688 -5.125 34.515625 -6.828125 33.171875 -8.921875 L 27.796875 -17.515625 L 26.75 -19.203125 C 25.894531 -20.648438 25.144531 -21.828125 24.5 -22.734375 C 23.851562 -23.640625 23.15625 -24.441406 22.40625 -25.140625 C 21.925781 -25.085938 21.175781 -25.0625 20.15625 -25.0625 C 18.71875 -25.0625 17.648438 -25.085938 16.953125 -25.140625 L 16.953125 -9.5625 C 16.953125 -6.71875 16.867188 -4.601562 16.703125 -3.21875 L 22.484375 -3.53125 L 22.484375 0 L 4.421875 0 Z M 20.484375 -28.109375 C 31.410156 -28.109375 36.875 -32.421875 36.875 -41.046875 C 36.875 -45.117188 35.691406 -48.171875 33.328125 -50.203125 C 30.972656 -52.234375 27.359375 -53.25 22.484375 -53.25 C 20.617188 -53.25 19.28125 -52.875 18.46875 -52.125 C 17.664062 -51.382812 17.210938 -50.476562 17.109375 -49.40625 C 17.003906 -48.332031 16.953125 -46.429688 16.953125 -43.703125 L 16.953125 -28.28125 C 18.554688 -28.164062 19.734375 -28.109375 20.484375 -28.109375 Z M 20.484375 -28.109375 "/></g></g></g><g fill="#ffffff" fill-opacity="1"><g transform="translate(501.913475, 79.983357)"><g><path d="M 4.421875 -2.65625 C 6.296875 -2.707031 7.632812 -3.132812 8.4375 -3.9375 C 9.238281 -4.738281 9.691406 -5.6875 9.796875 -6.78125 C 9.898438 -7.882812 9.953125 -9.800781 9.953125 -12.53125 L 9.953125 -47.234375 C 9.953125 -49.484375 10.035156 -51.410156 10.203125 -53.015625 L 4.421875 -52.703125 L 4.421875 -56.234375 L 43.0625 -56.234375 L 43.453125 -42.171875 L 40.8125 -42.171875 C 40.8125 -46.566406 39.859375 -49.566406 37.953125 -51.171875 C 36.054688 -52.773438 33.394531 -53.523438 29.96875 -53.421875 L 23.046875 -53.25 C 21.117188 -53.195312 19.726562 -52.835938 18.875 -52.171875 C 18.019531 -51.503906 17.484375 -50.566406 17.265625 -49.359375 C 17.054688 -48.148438 16.953125 -46.265625 16.953125 -43.703125 L 16.953125 -30.84375 L 32.046875 -30.765625 L 31.484375 -37.671875 L 35.015625 -37.671875 L 35.015625 -20.8125 L 32.375 -20.8125 C 32.375 -22.789062 32.128906 -24.300781 31.640625 -25.34375 C 31.160156 -26.382812 30.425781 -27.078125 29.4375 -27.421875 C 28.445312 -27.773438 27.066406 -27.953125 25.296875 -27.953125 L 22.8125 -27.875 L 16.953125 -27.640625 L 16.953125 -9.234375 C 16.953125 -6.453125 16.867188 -4.363281 16.703125 -2.96875 L 32.046875 -3.21875 C 35.796875 -3.269531 38.660156 -4.21875 40.640625 -6.0625 C 42.628906 -7.914062 43.625 -11.113281 43.625 -15.65625 L 46.34375 -15.65625 L 45.875 0 L 4.421875 0 Z M 4.421875 -2.65625 "/></g></g></g><g fill="#ffffff" fill-opacity="1"><g transform="translate(565.932486, 79.983357)"><g><path d="M 5.375 -28.515625 L 33.90625 -28.515625 L 33.90625 -23.21875 L 5.375 -22.890625 Z M 5.375 -28.515625 "/></g></g></g></g></g></svg>